<svg width="1030" height="500" viewBox="0 0 1030 500" fill="none" xmlns="http://www.w3.org/2000/svg">
<path d="M394.327 428C386.752 428 380.394 424.753 375.253 418.258C370.113 412.033 366.325 404.321 363.89 395.12C361.455 385.919 360.238 377.124 360.238 368.734C360.238 352.497 362.537 334.501 367.137 314.746C371.736 294.99 377.418 274.829 384.182 254.262C391.216 233.695 398.386 213.94 405.691 194.997C413.266 175.783 420.03 158.463 425.982 143.038C431.934 127.612 436.128 115.299 438.563 106.098C439.104 103.662 439.51 101.498 439.78 99.6032C440.051 97.4382 440.186 95.6792 440.186 94.3261C440.186 89.455 438.698 87.0194 435.722 87.0194C431.393 87.0194 424.9 91.4846 416.242 100.415C407.584 109.075 397.845 120.982 387.022 136.137C376.471 151.021 365.919 167.935 355.368 186.878C344.816 205.821 335.347 225.441 326.96 245.738C318.843 265.764 313.161 285.384 309.915 304.597C308.833 311.634 306.939 316.911 304.233 320.429C301.798 323.947 299.363 325.706 296.928 325.706C294.764 325.706 292.87 324.353 291.247 321.647C289.623 318.94 288.812 315.016 288.812 309.875C288.541 288.225 287.865 266.575 286.783 244.926C285.7 223.006 283.265 202.033 279.478 182.007C273.796 151.156 267.303 129.236 259.998 116.246C252.963 103.257 245.658 96.7617 238.083 96.7617C231.049 96.7617 224.149 101.092 217.386 109.751C210.892 118.141 204.67 129.371 198.717 143.444C192.765 157.245 187.49 172.4 182.89 188.908C178.291 205.415 174.638 221.788 171.933 238.025C169.498 254.262 168.28 268.74 168.28 281.46C168.28 284.436 168.28 287.413 168.28 290.39C168.551 293.096 168.821 295.667 169.092 298.103C169.362 299.456 169.498 300.944 169.498 302.568C169.498 303.921 169.498 305.274 169.498 306.627C169.498 312.851 168.686 318.399 167.063 323.27C165.439 328.141 163.546 330.577 161.381 330.577C159.217 330.577 157.188 328.141 155.294 323.27C153.129 318.399 151.371 312.31 150.018 305.003C148.665 297.426 147.583 291.067 146.771 285.925C146.23 282.136 145.013 276.453 143.119 268.876C141.496 261.298 139.466 253.044 137.031 244.114C134.596 234.913 131.756 225.983 128.509 217.323C125.533 208.392 122.286 200.815 118.769 194.591C115.252 188.096 111.599 183.901 107.812 182.007C107.271 181.466 107 180.924 107 180.383C107 179.03 108.353 178.218 111.058 177.948C114.034 177.677 116.064 177.812 117.146 178.353C122.827 179.977 127.833 184.036 132.161 190.531C136.761 196.756 140.684 204.198 143.93 212.857C147.448 221.247 150.424 229.636 152.859 238.025C155.294 246.144 157.323 252.909 158.946 258.322C161.922 239.649 165.439 221.247 169.498 203.115C173.827 184.713 179.508 166.717 186.543 149.127C196.553 124.771 206.428 107.451 216.168 97.1676C225.908 86.6135 235.107 81.3364 243.765 81.3364C252.963 81.3364 261.215 86.0722 268.52 95.5439C276.096 104.745 282.454 117.058 287.594 132.483C293.005 147.638 296.658 164.146 298.552 182.007C299.634 191.208 300.31 201.221 300.581 212.046C300.851 222.6 300.987 233.019 300.987 243.302V274.965C300.987 279.565 300.987 283.76 300.987 287.548C300.987 291.337 301.122 294.449 301.392 296.885C303.286 290.39 306.398 281.324 310.726 269.688C315.055 257.78 320.331 244.52 326.554 229.906C332.777 215.022 339.811 199.732 347.657 184.036C355.503 168.341 363.89 153.321 372.818 138.978C382.017 124.365 391.487 111.646 401.226 100.821C411.237 89.7256 421.247 81.607 431.258 76.4652C437.21 73.4884 442.756 72 447.897 72C453.849 72 458.854 73.759 462.913 77.2771C466.971 80.5245 469 85.3957 469 91.8905C469 101.633 466.971 111.375 462.913 121.117C458.854 130.589 453.984 139.926 448.303 149.127C442.621 158.328 437.345 167.258 432.475 175.918C423.818 191.614 415.16 209.745 406.502 230.312C397.845 250.88 390.54 272.123 384.587 294.043C378.906 315.964 376.065 337.072 376.065 357.368C376.065 363.863 376.336 370.223 376.877 376.447C377.688 382.671 378.906 388.625 380.529 394.308C382.964 402.968 385.94 408.921 389.457 412.169C393.245 415.687 397.033 417.446 400.821 417.446C404.879 417.446 408.667 416.228 412.184 413.792C415.701 411.628 418.542 409.192 420.706 406.486C422.871 404.05 423.818 402.562 423.547 402.021C425.982 401.209 426.929 401.885 426.388 404.05C425.847 406.486 424.765 408.921 423.141 411.357C421.518 414.063 420.436 415.687 419.895 416.228C410.425 424.076 401.903 428 394.327 428Z" fill="white"/>
<path d="M421.898 310C418.405 310 415.882 308.543 414.329 305.63C412.776 302.522 412 298.928 412 294.849C412 289.605 412.873 283.486 414.62 276.494C416.561 269.501 419.084 262.314 422.189 254.933C425.294 247.358 428.788 240.463 432.669 234.247C436.745 227.837 441.014 222.69 445.478 218.805C449.942 214.726 454.309 212.686 458.578 212.686C462.46 212.686 465.759 214.435 468.476 217.931C471.387 221.233 472.843 225.021 472.843 229.294C472.843 231.819 472.455 233.956 471.679 235.704C470.902 237.258 470.029 238.035 469.059 238.035C468.282 238.035 467.603 237.452 467.021 236.286C465.08 231.819 462.945 228.614 460.616 226.672C458.481 224.729 456.249 223.758 453.921 223.758C450.039 223.758 446.157 225.992 442.276 230.459C438.589 234.733 435.58 239.686 433.251 245.319C431.311 249.592 429.467 254.739 427.72 260.76C426.168 266.588 424.809 272.415 423.645 278.242C422.674 283.875 422.189 288.537 422.189 292.227C422.189 298.831 423.742 302.133 426.847 302.133C430.728 302.133 435.677 297.86 441.694 289.314C446.157 283.098 450.136 275.911 453.629 267.753C457.317 259.595 460.422 252.505 462.945 246.484C463.916 244.542 464.983 243.279 466.147 242.696C467.312 242.114 468.379 241.822 469.35 241.822C471.679 241.822 473.134 242.793 473.716 244.736C474.493 246.678 474.881 248.329 474.881 249.689C474.881 254.739 474.396 259.304 473.425 263.383C472.455 267.267 471.97 272.026 471.97 277.659C471.97 281.738 472.261 285.526 472.843 289.022C473.619 292.324 474.881 293.975 476.628 293.975C478.762 293.975 481.479 291.256 484.779 285.817C485.555 284.263 486.72 283.486 488.272 283.486C490.019 283.486 490.892 284.36 490.892 286.109C490.892 288.634 489.145 291.353 485.652 294.267C482.159 296.986 478.665 298.346 475.172 298.346C470.514 298.346 467.215 296.403 465.274 292.519C461.975 286.109 460.325 280.379 460.325 275.328C460.325 270.084 460.228 266.491 460.034 264.548C459.064 266.879 457.22 270.57 454.503 275.62C451.786 280.476 448.583 285.623 444.896 291.062C441.209 296.306 437.327 300.774 433.251 304.464C429.176 308.155 425.391 310 421.898 310Z" fill="white"/>
<path d="M489.93 428C482.167 428 475.568 425.669 470.134 421.007C464.506 416.54 461.692 410.519 461.692 402.943C461.692 395.368 465.282 386.53 472.463 376.43C479.644 366.329 491.774 355.84 508.853 344.963C512.734 342.244 516.81 339.816 521.079 337.679C525.543 335.542 530.104 333.309 534.762 330.978C535.926 330.395 536.8 330.104 537.382 330.104C538.158 330.104 538.546 330.395 538.546 330.978C538.546 332.337 537.188 333.794 534.471 335.348C525.155 340.01 517.198 344.866 510.599 349.916C504.195 355.16 498.275 361.279 492.841 368.272C489.93 371.962 486.825 376.235 483.526 381.091C480.42 386.142 477.8 391.095 475.665 395.951C473.337 400.807 472.172 405.177 472.172 409.062C472.172 417.22 476.054 421.299 483.817 421.299C487.116 421.299 490.998 420.328 495.461 418.385C499.925 416.637 504.777 413.723 510.017 409.644C523.214 399.35 532.53 387.89 537.964 375.264C543.398 362.833 546.115 348.265 546.115 331.56C546.115 319.129 544.951 305.338 542.622 290.188C540.487 274.649 539.323 259.789 539.129 245.61C538.158 251.631 536.509 258.915 534.18 267.462C532.045 275.814 529.425 283.778 526.319 291.353C523.214 298.928 519.721 305.435 515.839 310.874C512.152 316.313 507.397 319.032 501.575 319.032C497.499 319.032 494.006 316.993 491.095 312.914C488.377 308.835 487.019 302.619 487.019 294.267C487.019 288.051 488.086 280.67 490.221 272.123C492.356 263.577 495.267 255.322 498.955 247.358C502.642 239.2 506.718 232.499 511.182 227.254C515.839 221.816 520.497 219.096 525.155 219.096C528.454 219.096 530.783 220.456 532.142 223.175C533.694 225.7 534.471 228.323 534.471 231.042C534.471 233.179 534.083 235.024 533.306 236.578C532.53 238.132 531.365 238.909 529.813 238.909C528.26 238.714 527.096 238.035 526.319 236.869C525.737 235.509 525.155 234.247 524.573 233.081C523.991 231.722 522.923 231.042 521.371 231.042C518.265 231.042 515.257 233.081 512.346 237.16C509.629 241.045 507.106 246.193 504.777 252.602C502.642 258.818 500.895 265.422 499.537 272.415C498.372 279.407 497.79 285.817 497.79 291.644C497.79 297.083 498.372 301.551 499.537 305.047C500.895 308.543 502.933 310.388 505.65 310.583C508.95 310.777 512.152 308.64 515.257 304.173C518.362 299.705 521.176 293.975 523.699 286.983C526.417 279.99 528.745 272.609 530.686 264.84C532.821 256.876 534.568 249.495 535.926 242.696C537.479 235.704 538.546 230.265 539.129 226.38C540.681 216.086 542.137 209.579 543.495 206.859C544.854 203.946 546.309 202.489 547.862 202.489C549.221 202.489 550.385 203.751 551.355 206.277C552.52 208.802 553.102 211.133 553.102 213.269C553.102 214.823 553.005 215.891 552.811 216.474C550.482 229.294 549.318 242.405 549.318 255.807C549.318 261.44 549.512 267.073 549.9 272.706C550.288 278.145 550.773 283.584 551.355 289.022C552.52 300.288 553.102 310.777 553.102 320.489C553.102 340.301 551.064 357.006 546.989 370.602C543.107 384.393 537.964 395.465 531.56 403.817C525.155 412.364 518.265 418.482 510.89 422.173C503.71 426.058 496.723 428 489.93 428Z" fill="white"/>
<path d="M581.386 310C577.892 310 575.369 308.543 573.817 305.63C572.264 302.522 571.488 298.928 571.488 294.849C571.488 289.605 572.361 283.486 574.108 276.494C576.049 269.501 578.572 262.314 581.677 254.933C584.782 247.358 588.275 240.463 592.157 234.247C596.233 227.837 600.502 222.69 604.966 218.805C609.43 214.726 613.797 212.686 618.066 212.686C621.948 212.686 625.247 214.435 627.964 217.931C630.875 221.233 632.331 225.021 632.331 229.294C632.331 231.819 631.943 233.956 631.166 235.704C630.39 237.258 629.517 238.035 628.546 238.035C627.77 238.035 627.091 237.452 626.509 236.286C624.568 231.819 622.433 228.614 620.104 226.672C617.969 224.729 615.737 223.758 613.408 223.758C609.527 223.758 605.645 225.992 601.764 230.459C598.076 234.733 595.068 239.686 592.739 245.319C590.798 249.592 588.955 254.739 587.208 260.76C585.655 266.588 584.297 272.415 583.132 278.242C582.162 283.875 581.677 288.537 581.677 292.227C581.677 298.831 583.229 302.133 586.335 302.133C590.216 302.133 595.165 297.86 601.182 289.314C605.645 283.098 609.624 275.911 613.117 267.753C616.805 259.595 619.91 252.505 622.433 246.484C623.403 244.542 624.471 243.279 625.635 242.696C626.8 242.114 627.867 241.822 628.837 241.822C631.166 241.822 632.622 242.793 633.204 244.736C633.98 246.678 634.369 248.329 634.369 249.689C634.369 254.739 633.883 259.304 632.913 263.383C631.943 267.267 631.457 272.026 631.457 277.659C631.457 281.738 631.749 285.526 632.331 289.022C633.107 292.324 634.369 293.975 636.115 293.975C638.25 293.975 640.967 291.256 644.267 285.817C645.043 284.263 646.207 283.486 647.76 283.486C649.507 283.486 650.38 284.36 650.38 286.109C650.38 288.634 648.633 291.353 645.14 294.267C641.647 296.986 638.153 298.346 634.66 298.346C630.002 298.346 626.703 296.403 624.762 292.519C621.463 286.109 619.813 280.379 619.813 275.328C619.813 270.084 619.716 266.491 619.522 264.548C618.551 266.879 616.708 270.57 613.991 275.62C611.274 280.476 608.071 285.623 604.384 291.062C600.696 296.306 596.815 300.774 592.739 304.464C588.664 308.155 584.879 310 581.386 310Z" fill="white"/>
<path d="M650 305.338C648.253 305.338 647.671 304.27 648.253 302.133C650.582 292.81 654.367 284.36 659.607 276.785C665.041 269.016 671.446 261.635 678.821 254.642C686.389 247.649 694.444 240.56 702.983 233.373C699.684 233.761 696.967 234.247 694.832 234.83C692.697 235.412 689.398 235.704 684.934 235.704C681.052 235.704 676.88 235.412 672.416 234.83C668.146 234.053 664.459 232.887 661.354 231.333C658.248 229.779 656.696 227.546 656.696 224.632C656.696 222.301 657.278 220.359 658.442 218.805C659.801 217.251 661.257 215.794 662.809 214.435C663.78 213.463 664.653 212.978 665.429 212.978C666.206 212.978 666.594 213.463 666.594 214.435C666.594 215.6 666.011 216.765 664.847 217.931C663.294 219.485 662.518 220.844 662.518 222.01C662.518 223.952 664.265 225.409 667.758 226.38C671.446 227.157 675.812 227.546 680.858 227.546C686.681 227.546 692.697 227.06 698.907 226.089C705.312 225.118 710.358 223.952 714.045 222.593C716.374 221.621 718.024 220.844 718.994 220.262C720.159 219.485 721.129 219.096 721.906 219.096C723.458 219.096 724.72 219.97 725.69 221.719C726.854 223.467 727.437 225.312 727.437 227.254C727.437 229.585 726.66 231.139 725.108 231.916C715.598 237.549 706.185 243.279 696.87 249.106C687.554 254.739 679.306 261.343 672.125 268.919C664.944 276.494 659.607 286.012 656.114 297.472C659.219 295.529 663.391 293.393 668.631 291.062C674.066 288.537 679.791 286.4 685.807 284.652C692.018 282.709 697.646 281.738 702.692 281.738C708.902 281.738 712.784 282.904 714.337 285.235C716.083 287.371 716.957 289.314 716.957 291.062C716.957 292.616 716.86 294.17 716.665 295.723C716.665 297.083 716.471 298.249 716.083 299.22C715.307 300.968 714.337 301.842 713.172 301.842C712.396 301.842 712.299 301.259 712.881 300.094C713.269 299.511 713.56 299.026 713.754 298.637C713.948 298.054 714.045 297.374 714.045 296.598C714.045 294.072 711.814 292.421 707.35 291.644C702.886 290.867 698.422 290.479 693.958 290.479C687.942 290.479 681.246 291.839 673.872 294.558C666.691 297.083 660.771 299.705 656.114 302.425C652.426 304.367 650.388 305.338 650 305.338Z" fill="white"/>
<path d="M756.134 215.017C754.388 215.017 753.126 214.143 752.35 212.395C751.768 210.453 751.476 209.093 751.476 208.316C751.476 205.208 752.35 202.295 754.096 199.575C756.037 196.662 758.172 195.108 760.501 194.914H761.374C763.703 194.914 765.256 195.496 766.032 196.662C767.003 197.633 767.488 198.895 767.488 200.449C767.488 203.363 766.226 206.568 763.703 210.064C761.18 213.366 758.657 215.017 756.134 215.017ZM741.287 319.323C734.689 319.323 730.225 316.798 727.896 311.748C725.567 306.698 724.403 300.871 724.403 294.267C724.403 287.663 725.082 280.767 726.441 273.58C727.993 266.199 729.643 259.498 731.39 253.477C733.33 247.455 734.786 243.182 735.756 240.657C737.891 236.189 740.026 232.402 742.161 229.294C744.296 225.992 746.625 224.341 749.148 224.341C750.894 224.341 752.156 225.021 752.932 226.38C753.902 227.546 754.388 229.1 754.388 231.042C754.388 234.927 753.32 238.909 751.185 242.988C749.05 246.872 747.11 250.563 745.363 254.059C741.481 262.023 738.376 269.113 736.047 275.328C733.912 281.544 732.845 289.314 732.845 298.637C732.845 304.658 733.427 309.029 734.592 311.748C735.95 314.467 737.794 315.827 740.123 315.827C743.228 315.827 746.819 314.079 750.894 310.583C754.97 306.892 759.142 302.036 763.412 296.015C767.682 289.993 771.466 283.486 774.766 276.494C776.9 272.026 778.55 269.793 779.715 269.793C780.491 269.793 780.879 270.57 780.879 272.123C780.879 274.26 780.006 277.368 778.259 281.447C776.706 285.332 774.766 289.314 772.437 293.393C770.302 297.472 768.264 300.677 766.323 303.007C763.024 307.281 759.24 311.068 754.97 314.37C750.7 317.672 746.139 319.323 741.287 319.323Z" fill="white"/>
<path d="M835.045 316.119C832.522 316.119 830.29 314.565 828.349 311.457C826.408 308.155 825.438 301.939 825.438 292.81C825.438 285.623 826.02 277.756 827.185 269.21C828.349 260.469 829.61 251.826 830.969 243.279C832.522 234.733 833.88 227.157 835.045 220.553C836.209 213.755 836.791 208.802 836.791 205.694C836.791 200.255 835.142 197.536 831.842 197.536C828.737 197.536 825.535 199.09 822.236 202.198C819.13 205.305 816.122 209.093 813.211 213.56C810.494 218.028 808.068 222.398 805.933 226.672C803.992 230.751 802.731 233.761 802.149 235.704C799.432 243.279 797.491 250.854 796.326 258.43C795.162 265.811 794.58 273.483 794.58 281.447C794.58 284.749 794.677 288.148 794.871 291.644C795.259 295.141 795.55 298.734 795.744 302.425C796.132 304.367 795.55 306.795 793.997 309.709C792.639 312.428 790.989 313.788 789.048 313.788C787.69 313.788 786.525 312.914 785.555 311.165C784.585 309.417 783.905 307.863 783.517 306.504C782.741 304.173 782.159 301.745 781.771 299.22C781.382 296.5 780.994 294.17 780.606 292.227C779.248 284.263 777.986 276.202 776.822 268.044C775.657 259.692 774.008 251.631 771.873 243.862C771.29 241.725 770.514 239.491 769.544 237.16C768.767 234.635 767.506 232.596 765.759 231.042C765.371 230.653 764.789 230.265 764.013 229.877C763.236 229.294 762.848 228.808 762.848 228.42C762.848 227.643 763.916 227.254 766.05 227.254C768.379 227.254 770.708 228.42 773.037 230.751C775.366 233.081 777.501 236.189 779.442 240.074C781.771 244.93 783.711 250.077 785.264 255.516C787.011 260.955 788.369 265.325 789.34 268.627C790.504 261.635 791.766 255.419 793.124 249.98C794.483 245.319 796.326 239.783 798.655 233.373C800.984 226.769 803.895 220.359 807.389 214.143C810.882 207.733 815.055 202.489 819.907 198.41C824.759 194.137 830.387 192 836.791 192C846.107 192 850.765 197.439 850.765 208.316C850.765 213.949 849.794 220.165 847.854 226.963C845.913 233.567 843.778 239.686 841.449 245.319C839.314 250.951 837.859 254.836 837.082 256.973C836.112 259.692 835.045 263.383 833.88 268.044C832.91 272.706 832.036 277.562 831.26 282.612C830.678 287.663 830.387 292.324 830.387 296.598C830.387 300.288 830.775 303.396 831.551 305.921C832.522 308.252 833.977 309.417 835.918 309.417C837.859 309.417 839.605 308.543 841.158 306.795C842.711 304.853 843.972 303.105 844.943 301.551C846.107 299.997 846.689 299.705 846.689 300.677C847.077 303.59 846.01 306.892 843.487 310.583C841.158 314.273 838.344 316.119 835.045 316.119Z" fill="white"/>
<path d="M882.535 316.119C875.548 316.119 869.435 312.039 864.195 303.881C859.149 295.529 856.626 282.418 856.626 264.548C856.626 252.894 858.081 243.57 860.993 236.578C863.904 229.391 867.494 224.146 871.764 220.844C876.033 217.542 880.109 215.891 883.991 215.891C887.872 215.891 891.171 217.251 893.888 219.97C896.606 222.495 897.964 226.186 897.964 231.042C897.964 235.704 896.606 240.657 893.888 245.901C891.171 250.951 887.872 255.613 883.991 259.886C880.303 263.965 876.616 266.685 872.928 268.044C872.152 268.433 871.182 268.627 870.017 268.627C869.241 268.627 868.853 268.336 868.853 267.753C868.853 266.199 870.405 264.451 873.51 262.509C877.392 259.789 881.079 255.71 884.573 250.272C888.066 244.639 889.813 239.686 889.813 235.412C889.813 232.887 889.231 230.945 888.066 229.585C886.902 228.031 885.543 227.254 883.991 227.254C881.079 227.254 877.877 229.585 874.384 234.247C871.085 238.714 868.659 246.484 867.106 257.556C866.718 260.663 866.33 263.674 865.941 266.588C865.747 269.307 865.65 272.026 865.65 274.746C865.65 285.623 867.3 294.17 870.599 300.385C873.899 306.407 878.265 309.417 883.699 309.417C888.357 309.417 893.597 306.698 899.42 301.259C905.242 295.626 910.967 286.886 916.595 275.037C917.954 271.929 919.507 270.375 921.253 270.375C922.418 270.375 923 271.152 923 272.706C923 274.066 922.612 275.523 921.836 277.077C916.79 289.508 910.676 299.123 903.495 305.921C896.314 312.719 889.328 316.119 882.535 316.119Z" fill="white"/>
</svg>
